<svg xmlns="http://www.w3.org/2000/svg" xmlns:xlink="http://www.w3.org/1999/xlink" width="500" zoomAndPan="magnify" viewBox="0 0 375 374.999991" height="500" preserveAspectRatio="xMidYMid meet" version="1.0"><defs><g/></defs><g fill="#004aad" fill-opacity="1"><g transform="translate(109.599525, 263.26816)"><g><path d="M 238.109375 35.0625 C 238.984375 35.0625 239.851562 35.0625 240.71875 35.0625 L 240.71875 37.234375 C 236.675781 37.804688 232.164062 38.09375 227.1875 38.09375 C 222.207031 38.09375 216.070312 37.007812 208.78125 34.84375 C 201.5 32.6875 194.898438 28.648438 188.984375 22.734375 C 176.859375 10.609375 169.492188 -5.125 166.890625 -24.46875 L 153.6875 -120.796875 L 108.671875 -19.046875 C 104.628906 -10.242188 102.175781 -2.882812 101.3125 3.03125 L 99.140625 3.03125 L 43.078125 -118.84375 L 33.546875 -11.25 C 33.265625 -8.800781 34.023438 -6.640625 35.828125 -4.765625 C 37.628906 -2.890625 39.613281 -1.953125 41.78125 -1.953125 L 45.234375 -1.953125 L 45.234375 0 L 3.25 0 L 3.25 -2.171875 L 6.703125 -2.171875 C 10.609375 -2.171875 14.039062 -3.359375 17 -5.734375 C 19.957031 -8.117188 21.796875 -11.257812 22.515625 -15.15625 L 36.15625 -133.34375 C 23.445312 -158.3125 8.21875 -170.796875 -9.53125 -170.796875 C -11.113281 -170.796875 -12.769531 -170.722656 -14.5 -170.578125 L -14.5 -172.734375 C -10.601562 -173.742188 -7.425781 -174.25 -4.96875 -174.25 C -2.519531 -174.25 0.144531 -174.140625 3.03125 -173.921875 C 5.914062 -173.710938 9.304688 -173.03125 13.203125 -171.875 C 17.097656 -170.71875 20.773438 -169.019531 24.234375 -166.78125 C 27.703125 -164.550781 30.734375 -162.242188 33.328125 -159.859375 C 35.929688 -157.484375 38.390625 -154.851562 40.703125 -151.96875 C 44.597656 -146.769531 47.695312 -141.789062 50 -137.03125 L 102.171875 -24.03125 L 160.40625 -154.5625 L 162.359375 -154.5625 L 182.484375 -26.40625 C 185.515625 -6.207031 192.046875 9.082031 202.078125 19.46875 C 212.109375 29.863281 224.117188 35.0625 238.109375 35.0625 Z M 238.109375 35.0625 "/></g></g></g><g fill="#004aad" fill-opacity="1"><g transform="translate(50.648497, 230.648644)"><g><path d="M 174.90625 -84.640625 C 175.34375 -80.304688 175.5625 -74.859375 175.5625 -68.296875 C 175.5625 -61.734375 174.257812 -53.722656 171.65625 -44.265625 C 169.0625 -34.816406 164.375 -26.484375 157.59375 -19.265625 C 143.738281 -4.398438 124.6875 3.03125 100.4375 3.03125 C 71 3.03125 47.765625 -4.21875 30.734375 -18.71875 C 13.703125 -33.226562 5.1875 -52.207031 5.1875 -75.65625 C 5.1875 -99.101562 13.8125 -118.113281 31.0625 -132.6875 C 48.3125 -147.269531 71.078125 -154.5625 99.359375 -154.5625 C 110.179688 -154.5625 120.5 -153.476562 130.3125 -151.3125 C 140.125 -149.144531 148.28125 -146.332031 154.78125 -142.875 L 155.203125 -105.640625 L 153.46875 -105.640625 C 151.019531 -114.867188 146.910156 -122.585938 141.140625 -128.796875 C 130.742188 -139.910156 116.742188 -145.46875 99.140625 -145.46875 C 81.535156 -145.46875 67.359375 -139.1875 56.609375 -126.625 C 45.859375 -114.070312 40.484375 -97.441406 40.484375 -76.734375 C 40.484375 -56.023438 46.070312 -39.175781 57.25 -26.1875 C 68.4375 -13.195312 83.84375 -6.488281 103.46875 -6.0625 C 124.6875 -6.0625 141.570312 -12.84375 154.125 -26.40625 C 166.675781 -39.96875 172.953125 -58.367188 172.953125 -81.609375 C 172.953125 -82.617188 172.953125 -83.628906 172.953125 -84.640625 Z M 174.90625 -84.640625 "/></g></g></g></svg>